PathFileType	4	(X/Y/Z)	C:\Users\Basilio\Documents\Thesis Gigler\squatting_fais\c3dfiles\041\SLS_pre_front1\markers_experimental.trc
DataRate	CameraRate	NumFrames	NumMarkers	Units	OrigDataRate	OrigDataStartFrame	OrigNumFrames
200.000000	200.000000	4	62	mm	200.000000	948	1517
Frame#	Time	FHD			LBHD			RBHD			C7			T10			CLAV			LSHO			LUUPA			LMUPA			LDUPA			LLEP			LMEP			LRAD			LUL			LRFIN			RSHO			RUPA1			RMUPA			RDUPA			RLEP			RMEP			RRAD			RUL			RUFIN			LASI			RASI			USACR			LSACR			RSACR			LTHI1			LTHI2			LTHI3			LTHI4			LLFC			LMFC			LTIB1			LTIB2			LTIB3			LTIB4			LLMAL			LMMAL			LHEE			LMT1			LMT2			LMT5			RTHI			RTHI2			RTHI3			RTHI4			RLFC			RMFC			RTIB1			RTIB2			RTIB3			RTIB4			RLMAL			RMMAL			RHEE			RMT1			RMT2			RMT5			*61			
		X1	Y1	Z1	X2	Y2	Z2	X3	Y3	Z3	X4	Y4	Z4	X5	Y5	Z5	X6	Y6	Z6	X7	Y7	Z7	X8	Y8	Z8	X9	Y9	Z9	X10	Y10	Z10	X11	Y11	Z11	X12	Y12	Z12	X13	Y13	Z13	X14	Y14	Z14	X15	Y15	Z15	X16	Y16	Z16	X17	Y17	Z17	X18	Y18	Z18	X19	Y19	Z19	X20	Y20	Z20	X21	Y21	Z21	X22	Y22	Z22	X23	Y23	Z23	X24	Y24	Z24	X25	Y25	Z25	X26	Y26	Z26	X27	Y27	Z27	X28	Y28	Z28	X29	Y29	Z29	X30	Y30	Z30	X31	Y31	Z31	X32	Y32	Z32	X33	Y33	Z33	X34	Y34	Z34	X35	Y35	Z35	X36	Y36	Z36	X37	Y37	Z37	X38	Y38	Z38	X39	Y39	Z39	X40	Y40	Z40	X41	Y41	Z41	X42	Y42	Z42	X43	Y43	Z43	X44	Y44	Z44	X45	Y45	Z45	X46	Y46	Z46	X47	Y47	Z47	X48	Y48	Z48	X49	Y49	Z49	X50	Y50	Z50	X51	Y51	Z51	X52	Y52	Z52	X53	Y53	Z53	X54	Y54	Z54	X55	Y55	Z55	X56	Y56	Z56	X57	Y57	Z57	X58	Y58	Z58	X59	Y59	Z59	X60	Y60	Z60	X61	Y61	Z61	X62	Y62	Z62	

949	4.74	-171.6539611816407	1570.425170898438	-1122.540405273438	-345.8912353515626	1505.424194335938	-1204.531372070313	-332.3555603027344	1510.081909179688	-1051.930297851563	-396.3147277832032	1385.429443359375	-1131.718505859375	-529.1337280273439	1113.865844726563	-1073.428955078125	-252.7098541259766	1296.216064453125	-1129.651245117188	-329.5510253906251	1376.269897460938	-1264.827392578125	-237.2068786621094	1375.072509765625	-1400.336303710938	-193.9008941650391	1392.860961914063	-1386.200927734375	-181.6475830078125	1375.34326171875	-1443.7666015625	-138.8076324462891	1372.857177734375	-1463.448608398438	-89.24935150146486	1313.332397460938	-1424.967163085938	121.799072265625	1423.282592773438	-1534.035400390625	88.53942108154298	1419.203247070313	-1598.879760742188	181.2203063964844	1466.79541015625	-1564.442016601563	-304.2205505371094	1407.634887695313	-1021.288024902344	-160.3855895996094	1419.318481445313	-907.3992309570315	-143.5205383300782	1441.558349609375	-950.2047119140627	-93.7444534301758	1442.11181640625	-915.959899902344	-50.0082244873047	1446.276489257813	-917.6583251953127	-26.6963233947754	1365.987426757813	-934.8599243164065	216.891342163086	1456.806396484375	-956.3358154296877	205.3193969726563	1485.222900390625	-888.5058593750002	297.2749023437501	1481.247802734375	-956.8164672851565	-398.6522216796876	901.599792480469	-1158.844360351563	-402.8044433593751	912.7261352539065	-933.881774902344	-574.4605712890626	984.6724853515627	-1052.764526367188	-590.2656860351564	957.283386230469	-1079.031860351563	-593.5153198242189	959.5224609375002	-1024.697875976563	-414.253143310547	703.6723632812501	-1216.1533203125	-336.1530761718751	668.9290771484376	-1214.184204101563	-301.3851318359376	700.1098632812501	-1208.517944335938	-322.8250427246094	609.7528686523439	-1200.438232421875	-206.017074584961	486.9199523925782	-1174.505737304688	-196.0008239746094	485.2548828125001	-1058.668823242188	-229.0547637939454	309.6758422851563	-1093.186401367188	-290.4956665039063	277.2956237792969	-1153.405517578125	-257.0723876953126	265.5909118652344	-1124.557006835938	-286.0083312988282	200.0916748046876	-1080.596069335938	-378.0164794921876	127.8937072753907	-1113.4228515625	-337.4522399902344	140.935546875	-1031.836669921875	-449.2229919433595	117.24072265625	-1065.448608398438	-241.9272613525391	65.9143524169922	-1041.392456054688	-236.4548797607422	58.03657150268556	-1086.856323242188	-286.2179565429688	41.7724838256836	-1138.666015625	-353.9603576660157	688.2009277343751	-861.703308105469	-287.8687438964844	689.4225463867189	-860.6820068359377	-270.1701049804688	717.1488647460939	-867.291442871094	-238.9257049560547	621.5637817382814	-879.548034667969	-134.381591796875	552.6121826171876	-885.5946044921877	-107.8955459594727	561.4101562500001	-1002.701599121094	15.9448413848877	471.5208129882814	-894.6970825195315	19.87624168395996	358.5160522460938	-883.2131958007815	52.1336135864258	392.2809448242189	-883.6988525390627	103.1640701293946	378.9956359863282	-910.3851318359377	163.1486053466797	258.0874938964844	-899.5620727539065	162.9227294921875	298.2778320312501	-978.711364746094	163.5796813964844	187.8493957519532	-952.2553710937502	285.0637512207032	369.1427001953126	-958.9456176757815	284.1614074707032	372.2429809570313	-906.0903930664065	280.6835632324219	321.1601257324219	-862.5634765625002	-4216.921875000001	853.1362304687502	-3944.626220703126	
950	4.745	-172.0764465332032	1571.887084960938	-1122.655395507813	-346.0216674804688	1506.7734375	-1204.723022460938	-332.5720214843751	1511.5087890625	-1052.186767578125	-396.4568176269532	1386.676879882813	-1131.982177734375	-528.7968139648439	1114.772338867188	-1073.463134765625	-252.7989196777344	1297.6162109375	-1129.886596679688	-329.6778564453126	1377.493041992188	-1265.005004882813	-237.8212432861329	1376.39990234375	-1400.721069335938	-194.2502136230469	1394.07275390625	-1386.470947265625	-183.0047607421875	1377.213012695313	-1444.589965820313	-139.252426147461	1374.281860351563	-1463.668701171875	-89.40269470214845	1314.723388671875	-1425.327758789063	121.6830673217774	1424.348022460938	-1534.382080078125	88.15344238281251	1420.627685546875	-1599.234375	180.9243927001953	1468.331665039063	-1564.822631835938	-304.5352478027344	1408.999755859375	-1021.479858398438	-160.7786102294922	1420.723266601563	-907.394470214844	-143.4766082763672	1442.904052734375	-950.1754150390627	-94.25130462646486	1443.600952148438	-915.7220458984377	-50.22078323364259	1447.7626953125	-917.766052246094	-27.08609199523926	1367.357788085938	-934.649108886719	216.7989654541016	1458.245849609375	-955.7717285156252	204.8002014160157	1486.624267578125	-887.8518066406252	297.1045532226563	1482.800537109375	-956.1705322265627	-398.0910034179689	902.780212402344	-1158.902587890625	-402.2880859375001	913.996520996094	-933.9421386718752	-574.0238647460939	985.7366943359377	-1052.817260742188	-589.9254760742189	958.2466430664065	-1078.97216796875	-593.3433837890626	960.5249633789065	-1024.752075195313	-414.0206604003907	704.4797363281251	-1216.118530273438	-335.5933227539063	669.1395263671876	-1214.029052734375	-301.1546630859376	700.5769042968751	-1208.438720703125	-322.3097229003907	609.9955444335939	-1200.118896484375	-206.3678436279297	487.1070251464845	-1174.505004882813	-196.1612548828126	485.3847045898439	-1058.691772460938	-229.2318115234376	309.7897644042969	-1093.234008789063	-290.7628784179688	277.4476623535157	-1153.507690429688	-257.1194458007813	265.7383728027344	-1124.637817382813	-286.0481567382813	200.136703491211	-1080.710083007813	-378.0384521484376	127.8760528564453	-1113.471923828125	-337.4264221191407	140.9762878417969	-1031.927490234375	-449.2102661132814	117.2472457885742	-1065.453979492188	-241.9011535644532	65.98097991943361	-1041.394165039063	-236.4307556152344	58.06636428833009	-1086.853881835938	-286.2843322753907	41.77898406982423	-1138.67431640625	-353.4869689941407	689.1998291015626	-861.5198364257815	-287.6848754882813	690.0125732421876	-860.2932128906252	-269.8640136718751	717.9056396484376	-867.035827636719	-238.691390991211	622.3320312500001	-879.3499755859377	-134.2355041503907	553.2531127929689	-885.5063476562502	-107.8551559448242	561.8331298828126	-1002.524963378906	16.1065731048584	471.7127075195314	-894.443542480469	19.72543334960938	358.8149108886719	-883.1328735351565	52.02925491333009	392.4279785156251	-883.6523437500002	102.9721832275391	379.1456298828126	-910.253845214844	162.857177734375	258.1351623535157	-899.529479980469	162.5612335205078	298.2531433105469	-978.493835449219	163.2500610351563	187.8214569091797	-952.191101074219	285.0721740722657	368.8953552246094	-958.8970947265627	283.9205322265626	372.0511169433594	-906.0179443359377	280.4512939453126	320.9682312011719	-862.5791625976565	-4216.833496093751	853.1049804687502	-3944.781250000001	
951	4.75	-171.8067016601563	1573.016967773438	-1122.873168945313	-346.3407287597657	1508.156982421875	-1204.925659179688	-332.8231811523438	1512.805297851563	-1052.138671875	-396.7307434082032	1387.855346679688	-1132.15771484375	-528.4425659179689	1115.728637695313	-1073.570678710938	-252.8580169677735	1299.178833007813	-1130.044799804688	-329.9031982421876	1378.6083984375	-1265.323364257813	-237.8012237548829	1377.325927734375	-1400.893188476563	-194.5520935058594	1395.246459960938	-1386.825073242188	-182.4913635253907	1377.835327148438	-1444.608642578125	-139.56982421875	1375.287719726563	-1464.121459960938	-89.53257751464845	1315.988037109375	-1425.517333984375	121.57861328125	1426.019287109375	-1534.883178710938	87.80649566650392	1422.021484375	-1599.613159179688	180.6444702148438	1469.655151367188	-1565.232421875	-304.7115173339844	1410.388427734375	-1021.57666015625	-161.0492553710938	1422.374389648438	-907.232849121094	-144.1131744384766	1444.557739257813	-949.9854125976565	-94.48794555664064	1445.111328125	-915.5643310546877	-50.65549087524415	1449.242309570313	-917.4176025390627	-27.08090400695801	1368.892211914063	-934.5185546875002	215.9770812988282	1460.177978515625	-955.2564086914065	204.6377716064454	1488.23876953125	-887.4591064453127	296.7550354003907	1484.227294921875	-955.4971313476565	-397.6785278320314	903.7823486328127	-1158.83935546875	-401.944793701172	914.9763793945315	-933.849792480469	-573.4687500000001	986.7750244140627	-1052.83251953125	-589.3685913085939	959.3660278320315	-1078.96337890625	-592.4255981445314	961.5765380859377	-1024.638671875	-413.769500732422	705.2905883789064	-1216.02294921875	-335.7905883789063	669.8949584960939	-1214.136596679688	-300.9667663574219	701.0083007812501	-1208.318725585938	-322.7979736328126	610.8489990234376	-1200.224975585938	-206.6902160644532	487.3279418945314	-1174.467895507813	-196.4043731689454	485.4957275390626	-1058.754760742188	-229.3374938964844	309.9166564941407	-1093.382446289063	-290.8981933593751	277.5150451660157	-1153.500244140625	-257.2531738281251	265.7788391113282	-1124.784545898438	-286.1271057128907	200.1500549316407	-1080.782592773438	-378.0256652832032	127.8421325683594	-1113.525512695313	-337.4074096679688	140.9647827148438	-1031.968383789063	-449.1314392089845	117.2000274658203	-1065.390502929688	-241.8834533691407	66.0231170654297	-1041.399658203125	-236.4947967529297	58.08814239501955	-1086.815307617188	-286.2852478027344	41.71161270141602	-1138.734252929688	-353.1601867675782	690.4674072265626	-861.4978637695315	-287.0046997070313	690.9556884765626	-860.472351074219	-269.2800903320313	718.6645507812501	-867.068786621094	-238.5274505615235	622.8786621093751	-879.1267089843752	-134.0710906982422	553.8113403320314	-885.4014892578127	-107.6925277709961	562.2090454101564	-1002.410949707031	16.15369033813477	471.9603881835939	-894.3488769531252	19.63608932495118	359.0850830078126	-882.9710083007815	51.94014739990236	392.5921936035157	-883.5486450195315	102.8616943359375	379.3069152832032	-910.1486816406252	162.5621032714844	258.0897216796876	-899.4419555664065	162.1852416992188	298.2424011230469	-978.4050292968752	162.8320007324219	187.494140625	-952.0335693359377	284.9523010253907	368.7377929687501	-958.9632568359377	283.6625976562501	371.8635559082032	-906.0397949218752	280.2497253417969	320.7750549316407	-862.5505371093752	-4216.874023437501	853.1467285156252	-3944.630126953126	
952	4.755	-172.6045989990235	1574.594482421875	-1122.877197265625	-346.6036682128907	1509.622680664063	-1205.0556640625	-333.0871582031251	1514.391235351563	-1052.395385742188	-396.8354797363282	1389.08203125	-1132.3681640625	-528.0557250976564	1116.791015625	-1073.583129882813	-252.8631439208985	1300.507934570313	-1130.095336914063	-330.1300659179688	1379.94287109375	-1265.535888671875	-238.2811737060547	1378.504638671875	-1401.19189453125	-194.8976440429688	1396.541381835938	-1387.197998046875	-183.5692901611328	1379.3623046875	-1445.262817382813	-139.7337036132813	1376.557373046875	-1464.44482421875	-89.96658325195314	1317.297607421875	-1425.833740234375	120.9564895629883	1427.2099609375	-1535.107177734375	87.4026336669922	1423.421020507813	-1600.047973632813	180.3926849365235	1471.1064453125	-1565.5888671875	-304.9538269042969	1411.766479492188	-1021.680603027344	-161.5552215576172	1423.703735351563	-907.1150512695315	-143.9113922119141	1445.872436523438	-949.9530029296877	-94.83599853515626	1446.518188476563	-915.4260253906252	-51.03910064697267	1450.700805664063	-917.1831054687502	-27.40979576110841	1370.477172851563	-934.210632324219	215.4779663085938	1461.627197265625	-954.5158691406252	204.1836700439454	1489.623413085938	-886.763610839844	296.2873229980469	1485.91650390625	-954.8050537109377	-396.9620666503907	904.6437988281252	-1158.88427734375	-401.1735839843751	916.171813964844	-933.9890747070315	-572.7741699218751	987.6587524414065	-1052.742065429688	-588.7486572265626	960.2944335937502	-1078.888061523438	-591.9218750000001	962.523864746094	-1024.516845703125	-413.5586547851564	706.0748291015626	-1215.947631835938	-335.6319274902344	670.4533691406251	-1214.139404296875	-300.7405700683594	701.4093627929689	-1208.230346679688	-322.8367309570313	611.4199829101564	-1200.073120117188	-207.0063018798829	487.5528564453126	-1174.483764648438	-196.6243438720704	485.6286010742189	-1058.791259765625	-229.4669036865235	310.0158081054688	-1093.494018554688	-291.1023254394532	277.6139831542969	-1153.5830078125	-257.3302001953126	265.8678894042969	-1124.962036132813	-286.1697692871094	200.2135620117188	-1080.8916015625	-378.0720214843751	127.8258590698242	-1113.571411132813	-337.4110107421876	141.00439453125	-1032.062133789063	-449.1329956054689	117.2151031494141	-1065.385009765625	-241.8888854980469	66.11499023437501	-1041.474243164063	-236.4383850097657	58.0514602661133	-1086.892211914063	-286.2920837402344	41.70102310180665	-1138.743530273438	-352.8906555175782	691.2844238281251	-861.1797485351565	-286.9138793945313	691.9208984375001	-860.097351074219	-268.6777343750001	719.6125488281251	-867.0410156250002	-238.1616363525391	623.6111450195314	-879.000427246094	-134.0091400146485	554.2686157226564	-885.2420043945315	-107.6708374023438	562.6115112304689	-1002.213134765625	16.18499565124512	472.2831115722657	-894.0732421875002	19.40057563781739	359.3497619628907	-882.8520507812502	51.66986083984376	392.8106384277345	-883.3870239257815	102.7357254028321	379.5249633789063	-910.1358032226565	162.1217803955078	258.0671997070313	-899.3182373046877	161.8892059326172	298.1634826660157	-978.3315429687502	162.1788940429688	187.9304656982422	-952.0004882812502	284.6274719238282	368.5081481933594	-958.9318847656252	283.0568237304688	372.0250244140626	-906.3527832031252	280.0291748046876	320.5918273925782	-862.5772705078127	-4216.745117187501	853.1413574218752	-3944.760498046876	
